<?xml version="1.0" encoding="UTF-8"?><svg id="OBJECTS" xmlns="http://www.w3.org/2000/svg" xmlns:xlink="http://www.w3.org/1999/xlink" viewBox="0 0 437.38 422.54"><defs><style>.cls-1{fill:#d6a999;}.cls-2{fill:#24365e;}.cls-3{fill:#fff;}.cls-4{fill:#ba656b;}.cls-5{fill:#30406d;}.cls-6{fill:#a8aeef;}.cls-7{fill:#e1e5ff;}.cls-8{fill:#bbc2f2;}.cls-9{fill:#bf636b;}.cls-10{fill:#e6eaff;}.cls-11{fill:#e9c3b3;}.cls-12{fill:#f7cdd3;}.cls-13{fill:#ffc952;}.cls-14{fill:#963b46;}.cls-15{opacity:.4;}.cls-15,.cls-16{fill:#d88f96;}.cls-17{fill:#a04b55;}.cls-18{fill:#000b2d;}.cls-19{fill:#b58371;}.cls-20{fill:#ce919e;}.cls-21{fill:#fff3f6;}.cls-22{fill:#bf8a77;}.cls-23,.cls-24{fill:none;}.cls-25{fill:#f4ced3;}.cls-26{fill:#e1b9ab;}.cls-24{clip-path:url(#clippath);}.cls-27{fill:#772432;}.cls-28{fill:#ffe6eb;}.cls-29{fill:#7084b7;}</style><clipPath id="clippath"><path class="cls-23" d="m234.86,254.41c-26.98-5.09-97.04,12.68-156.18,56.41,71.87,39.31,121.75,75.47,144.52,98.63,9.96,10.13,16.84,8.52,27.83-3.29,41.49-44.61,85.58-71.56,125.26-93.35-38.48-37.06-97.41-59.06-141.42-58.4"/></clipPath></defs><path class="cls-10" d="m95.37,299.05c-15.82,1-37.23-27-46.54-39-21.41-24-27-51-1.86-74,22.34-21,11.17-31-3.72-54-13.03-22-15.83-56,12.1-68,25.13-11,52.13,13,77.26,0,15.83-9,27.93-26,44.68-35,13.96-8,27.93-13,42.82-18,18.62-6,60.51-21,75.4-1,9.31,12,2.79,26,4.65,40,2.79,22,16.76,15,33.51,14,25.13-2,61.44,1,68.88,32,5.58,27-29.79,45-2.79,64,33.51,24,28.86,48,1.86,77-26.06,29-53.99,41-88.43,52"/><path class="cls-12" d="m252.17,243.07c-89.64-1.41-230,12.95-230,87.19,0,100.64,411,87.87,415.14,0,3.29-69.8-110.83-87.07-185.14-87.19"/><path class="cls-28" d="m248.05,261.14c-73.13-1.02-187.64,9.34-187.64,62.9,0,72.61,335.3,63.39,338.68,0,2.68-50.36-90.41-62.82-151.04-62.9"/><path class="cls-21" d="m231.28,249.07c-4.57.44-9.19.55-13.78.79-8.02.42-16.03.92-24.03,1.59-21.34,1.78-42.66,4.58-63.53,9.44s-42.69,11.86-60.73,24.26c-7.9,5.43-15.09,12.04-20.43,20.05-3.08,4.63-5.74,9.8-6.84,15.28-1.43,7.07-.25,14.33,2.93,20.76s8.42,12.19,14.32,16.56c7.02,5.2,15.33,8.4,23.43,11.51,17.46,6.71,35.67,11.3,54.14,14.2s36.65,4.11,55.08,4.61c18.98.51,38.01.48,56.99.04,19.3-.44,38.62-1.42,57.76-4.06,9.44-1.3,18.71-3.19,27.99-5.31,8.16-1.86,16.36-3.57,24.48-5.63,15.65-3.97,31.17-9.44,44.07-19.43,6.34-4.91,12.56-10.73,15.64-18.29,2.69-6.64,2.68-13.97.79-20.82-7.53-27.19-35.22-40.18-59.79-48.18-32.71-10.65-67.57-15.18-101.83-16.82-8.88-.43-17.76-.61-26.65-.56-.96,0-.97,1.51,0,1.5,35.02-.19,70.39,2.95,104.55,10.86,14.33,3.32,28.59,7.49,42.03,13.52,10.87,4.88,21.49,11.01,29.26,20.22,9.59,11.37,16.58,27.79,9.16,42.11-3.82,7.37-10.84,13.2-17.56,17.85-6.65,4.59-13.95,8.15-21.51,10.96-15.32,5.7-31.52,8.61-47.39,12.29-18.56,4.31-37.6,6.28-56.59,7.36-18.61,1.06-37.26,1.2-55.9,1.2s-36.72-.34-55.02-1.88c-17.99-1.52-35.9-4.25-53.38-8.85-8.88-2.34-17.64-5.15-26.21-8.45-8.05-3.1-16.27-6.32-23.2-11.57-12.39-9.39-20.55-24.92-14.66-40.34,3.38-8.84,9.58-16.54,16.6-22.77,15.71-13.94,36.23-21.87,56.18-27.49s42.28-9.28,63.76-11.51c14.94-1.55,29.92-2.36,44.91-3.17,1.66-.09,3.32-.18,4.98-.34.95-.09.96-1.59,0-1.5h0Z"/><path class="cls-20" d="m85.82,264.33h-1.69l1.38-1.38c.97-.97-.53-2.48-1.51-1.5l-1.16,1.16v-1.48c0-1.37-2.13-1.37-2.13,0v1.48l-1.59-1.59c-.97-.97-2.48.53-1.51,1.5l1.8,1.8h-1.69c-1.37,0-1.37,2.13,0,2.13h1.26l-.74.74c-.97.97.53,2.48,1.51,1.51l.95-.95v1.05c0,1.37,2.13,1.37,2.13,0v-1.05c.46.46.92.92,1.38,1.38.97.97,2.48-.53,1.51-1.51-.39-.39-.78-.78-1.16-1.16h1.26c1.37,0,1.37-2.13,0-2.13Z"/><path class="cls-20" d="m40.04,295.49h-1.69l1.38-1.38c.97-.97-.53-2.48-1.51-1.5l-1.16,1.16v-1.48c0-1.37-2.13-1.37-2.13,0v1.48l-1.59-1.59c-.97-.97-2.48.53-1.51,1.5l1.8,1.8h-1.69c-1.37,0-1.37,2.13,0,2.13h1.26l-.74.74c-.97.97.53,2.48,1.51,1.51l.95-.95v1.05c0,1.37,2.13,1.37,2.13,0v-1.05c.46.46.92.92,1.38,1.38.97.97,2.48-.53,1.51-1.51-.39-.39-.78-.78-1.16-1.16h1.26c1.37,0,1.37-2.13,0-2.13Z"/><path class="cls-20" d="m33.9,352.76h-1.69l1.38-1.38c.97-.97-.53-2.48-1.51-1.5l-1.16,1.16v-1.48c0-1.37-2.13-1.37-2.13,0v1.48l-1.59-1.59c-.97-.97-2.48.53-1.51,1.5l1.8,1.8h-1.69c-1.37,0-1.37,2.13,0,2.13h1.26l-.74.74c-.97.97.53,2.48,1.51,1.51l.95-.95v1.05c0,1.37,2.13,1.37,2.13,0v-1.05c.46.46.92.92,1.38,1.38.97.97,2.48-.53,1.51-1.51-.39-.39-.78-.78-1.16-1.16h1.26c1.37,0,1.37-2.13,0-2.13Z"/><path class="cls-20" d="m87.72,383.58h-1.69l1.38-1.38c.97-.97-.53-2.48-1.51-1.5l-1.16,1.16v-1.48c0-1.37-2.13-1.37-2.13,0v1.48l-1.59-1.59c-.97-.97-2.48.53-1.51,1.5l1.8,1.8h-1.69c-1.37,0-1.37,2.13,0,2.13h1.26l-.74.74c-.97.97.53,2.48,1.51,1.51l.95-.95v1.05c0,1.37,2.13,1.37,2.13,0v-1.05c.46.46.92.92,1.38,1.38.97.97,2.48-.53,1.51-1.51-.39-.39-.78-.78-1.16-1.16h1.26c1.37,0,1.37-2.13,0-2.13Z"/><path class="cls-20" d="m166.3,399.49h-1.69l1.38-1.38c.97-.97-.53-2.48-1.51-1.5l-1.16,1.16v-1.48c0-1.37-2.13-1.37-2.13,0v1.48l-1.59-1.59c-.97-.97-2.48.53-1.51,1.5l1.8,1.8h-1.69c-1.37,0-1.37,2.13,0,2.13h1.26l-.74.74c-.97.97.53,2.48,1.51,1.51l.95-.95v1.05c0,1.37,2.13,1.37,2.13,0v-1.05c.46.46.92.92,1.38,1.38.97.97,2.48-.53,1.51-1.51-.39-.39-.78-.78-1.16-1.16h1.26c1.37,0,1.37-2.13,0-2.13Z"/><path class="cls-20" d="m312.51,394.46h-1.69l1.38-1.38c.97-.97-.53-2.48-1.51-1.5l-1.16,1.16v-1.48c0-1.37-2.13-1.37-2.13,0v1.48l-1.59-1.59c-.97-.97-2.48.53-1.51,1.5l1.8,1.8h-1.69c-1.37,0-1.37,2.13,0,2.13h1.26l-.74.74c-.97.97.53,2.48,1.5,1.51l.95-.95v1.05c0,1.37,2.13,1.37,2.13,0v-1.05c.46.46.92.92,1.38,1.38.97.97,2.48-.53,1.51-1.51-.39-.39-.78-.78-1.16-1.16h1.26c1.37,0,1.37-2.13,0-2.13Z"/><path class="cls-20" d="m377.23,380.29h-1.69l1.38-1.38c.97-.97-.53-2.48-1.51-1.5l-1.16,1.16v-1.48c0-1.37-2.13-1.37-2.13,0v1.48l-1.59-1.59c-.97-.97-2.48.53-1.51,1.5l1.8,1.8h-1.69c-1.37,0-1.37,2.13,0,2.13h1.26l-.74.74c-.97.97.53,2.48,1.5,1.51l.95-.95v1.05c0,1.37,2.13,1.37,2.13,0v-1.05l1.38,1.38c.97.97,2.48-.53,1.51-1.51-.39-.39-.78-.78-1.16-1.16h1.26c1.37,0,1.37-2.13,0-2.13Z"/><path class="cls-20" d="m435.05,347.1l-1.69-.03,1.4-1.35c.99-.95-.49-2.49-1.48-1.53l-1.18,1.14.03-1.48c.02-1.37-2.1-1.41-2.13-.04l-.03,1.48-1.56-1.62c-.95-.99-2.49.49-1.53,1.48l1.77,1.83-1.69-.03c-1.37-.02-1.41,2.11-.04,2.13l1.26.02-.75.72c-.99.95.49,2.49,1.48,1.53l.97-.93-.02,1.05c-.02,1.37,2.1,1.41,2.13.04l.02-1.05c.45.47.9.93,1.35,1.4.96.99,2.49-.49,1.53-1.48-.38-.39-.76-.79-1.14-1.18l1.26.02c1.37.02,1.41-2.11.04-2.13Z"/><path class="cls-20" d="m430.66,295.9l-1.69-.03,1.4-1.35c.99-.95-.49-2.49-1.48-1.53l-1.18,1.14.03-1.48c.02-1.37-2.1-1.41-2.13-.04l-.03,1.48-1.56-1.62c-.95-.99-2.49.49-1.53,1.48l1.77,1.83-1.69-.03c-1.37-.02-1.41,2.11-.04,2.13l1.26.02-.75.72c-.99.95.49,2.49,1.48,1.53l.97-.93-.02,1.05c-.02,1.37,2.1,1.41,2.13.04l.02-1.05c.45.47.9.93,1.35,1.4.96.99,2.49-.49,1.53-1.48-.38-.39-.76-.79-1.14-1.18l1.26.02c1.37.02,1.41-2.11.04-2.13Z"/><path class="cls-20" d="m397.47,266.05l-1.69-.03,1.4-1.35c.99-.95-.49-2.49-1.48-1.53l-1.18,1.14.03-1.48c.02-1.37-2.1-1.41-2.13-.04l-.03,1.48-1.56-1.62c-.95-.99-2.49.49-1.53,1.48l1.77,1.83-1.69-.03c-1.37-.02-1.41,2.11-.04,2.13l1.26.02-.75.72c-.99.95.49,2.49,1.48,1.53l.97-.93-.02,1.05c-.02,1.37,2.1,1.41,2.13.04l.02-1.05c.45.47.9.93,1.35,1.4.96.99,2.49-.49,1.53-1.48-.38-.39-.76-.79-1.14-1.18l1.26.02c1.37.02,1.41-2.11.04-2.13Z"/><path class="cls-20" d="m336.68,247.08l-1.69-.03,1.4-1.35c.99-.95-.49-2.49-1.48-1.53l-1.18,1.14.03-1.48c.02-1.37-2.1-1.41-2.13-.04l-.03,1.48-1.56-1.62c-.95-.99-2.49.49-1.53,1.48l1.77,1.83-1.69-.03c-1.37-.02-1.41,2.11-.04,2.13l1.26.02-.75.72c-.99.95.49,2.49,1.48,1.53l.97-.93-.02,1.05c-.02,1.37,2.1,1.41,2.13.04l.02-1.05c.45.47.9.93,1.35,1.4.96.99,2.49-.49,1.53-1.48-.38-.39-.76-.79-1.14-1.18l1.26.02c1.37.02,1.41-2.11.04-2.13Z"/><path class="cls-20" d="m148.87,247.76l-1.69-.03,1.4-1.35c.99-.95-.49-2.49-1.48-1.53l-1.18,1.14.03-1.48c.02-1.37-2.1-1.41-2.13-.04l-.03,1.48-1.56-1.62c-.95-.99-2.49.49-1.53,1.48l1.77,1.83-1.69-.03c-1.37-.02-1.41,2.11-.04,2.13l1.26.02-.75.72c-.99.95.49,2.49,1.48,1.53l.97-.93-.02,1.05c-.02,1.37,2.1,1.41,2.13.04l.02-1.05c.45.47.9.93,1.35,1.4.95.99,2.49-.49,1.53-1.48-.38-.39-.76-.79-1.14-1.18l1.26.02c1.37.02,1.41-2.11.04-2.13Z"/><path class="cls-5" d="m78.68,311.89c7.97,8.03,76.7,89.06,158.34,102.58,47.32-2.47,139.22-90.66,139.26-101.66-71.58-9-256.6-1.78-297.6-.92"/><g class="cls-24"><path class="cls-8" d="m234.86,254.41c-26.98-5.09-97.04,12.68-156.18,56.41,71.87,39.31,121.75,75.47,144.52,98.63,9.96,10.13,16.84,8.52,27.83-3.29,41.49-44.61,85.58-71.56,125.26-93.35-38.48-37.06-97.41-59.06-141.42-58.4"/><path class="cls-7" d="m85.9,317.79c6.58-6.98,14.99-11.93,23.47-16.24,8.52-4.33,17.35-8.01,25.87-12.35,4.83-2.46,9.55-5.1,14.4-7.51s10.09-4.87,15.24-7.09c10.49-4.52,21.26-8.38,32.25-11.48,6.47-1.82,12.97-3.49,19.42-5.4,6.79-2.02,13.54-4.14,20.29-6.27.76-.24.44-1.45-.33-1.21-11.92,3.75-23.86,7.44-35.94,10.64-11.13,2.95-22.04,6.67-32.67,11.09-10.42,4.33-20.52,9.33-30.46,14.67-8.44,4.53-17.3,8.21-25.9,12.42-9.55,4.69-19.16,10.02-26.52,17.83-.55.59.33,1.47.88.88h0Z"/><path class="cls-7" d="m93.24,329.41c20.32-13.43,42.36-23.9,63.82-35.32,10.7-5.69,21.3-11.45,32.4-16.35,11.24-4.96,22.73-9.31,34.36-13.26,6.41-2.18,12.87-4.23,19.35-6.2,2.56-.78,5.11-1.57,7.64-2.44,2.16-.73,4.55-1.75,6.86-1.8.8-.02.81-1.27,0-1.25-1.91.04-3.82.73-5.62,1.32-2.19.72-4.35,1.51-6.56,2.16-5.83,1.73-11.63,3.56-17.41,5.46-11.47,3.78-22.81,7.93-33.94,12.63-11.4,4.81-22.37,10.35-33.24,16.24-10.75,5.82-21.67,11.32-32.49,17.01-12.21,6.42-24.3,13.1-35.81,20.71-.67.44-.04,1.52.63,1.08h0Z"/><path class="cls-7" d="m115.2,340.1c10.83-5.11,21.21-11.06,31.34-17.44,9.18-5.78,18.19-11.84,27.51-17.4,21.43-12.79,44.12-23.6,66.82-33.91,6.34-2.88,12.83-5.49,19.11-8.5,5.69-2.73,10.96-6.81,17.35-7.77.79-.12.46-1.32-.33-1.21-5.52.84-10.29,4-15.11,6.59-5.28,2.84-10.98,5-16.45,7.46-11.68,5.24-23.3,10.64-34.78,16.32-11.34,5.61-22.6,11.45-33.57,17.78-9.45,5.45-18.54,11.5-27.73,17.37-11.24,7.17-22.73,13.93-34.8,19.62-.73.34-.09,1.42.63,1.08h0Z"/><path class="cls-7" d="m132.79,353.44c18.31-14.43,39.9-23.8,60.67-34.02,5.16-2.54,10.29-5.13,15.34-7.87,5.33-2.89,10.5-6.03,15.69-9.15,11.07-6.65,22.16-13.29,33.4-19.65,6.3-3.57,12.66-7.05,19.08-10.4,3.27-1.71,6.56-3.38,9.87-5.01.79-.39,1.62-.74,2.39-1.17.65-.37,1.25-.85,1.9-1.24,1.46-.87,3.02-1.44,4.68-1.79.79-.17.45-1.37-.33-1.21-1.24.26-2.44.64-3.59,1.18-1.39.65-2.57,1.62-3.94,2.29-2.89,1.41-5.76,2.85-8.62,4.32-5.82,2.99-11.57,6.09-17.29,9.27-11.43,6.36-22.68,13.03-33.89,19.76-5.42,3.25-10.79,6.59-16.29,9.68-5.05,2.84-10.2,5.51-15.39,8.1-10.5,5.25-21.17,10.17-31.61,15.55-11.51,5.93-22.77,12.44-32.96,20.47-.63.5.26,1.38.88.88h0Z"/><path class="cls-7" d="m155.62,366.62c5.12-2.4,9.65-5.8,14.26-9.04,4.93-3.45,10.19-6.25,15.44-9.17,10.94-6.07,21.82-12.27,32.61-18.61,10.98-6.45,21.77-13.24,32.77-19.66s21.97-12.63,33.12-18.66c6.06-3.28,12.14-6.45,18.05-10,5.76-3.46,11.56-7,17.91-9.26.75-.27.43-1.48-.33-1.21-5.52,1.96-10.63,4.86-15.64,7.85s-10.54,6.13-15.94,9.02c-11.15,5.96-22.19,12.14-33.14,18.47s-21.98,12.93-32.86,19.58c-10.8,6.61-21.85,12.83-32.9,19.01-6.01,3.36-12.25,6.44-17.95,10.32-5.24,3.58-10.26,7.55-16.03,10.26-.73.34-.09,1.42.63,1.08h0Z"/><path class="cls-7" d="m183.06,384.21c10.46-5.66,19.58-13.38,29.61-19.72,5.05-3.19,10.34-5.99,15.5-9.01s10.72-6.38,15.96-9.76c10.57-6.8,20.65-14.35,30.86-21.68,10.46-7.51,20.95-14.99,31.58-22.26,5.81-3.97,11.66-7.89,17.58-11.71,2.94-1.9,5.89-3.78,8.87-5.63,1.48-.92,2.97-1.84,4.46-2.75,1.35-.82,2.85-1.57,4.07-2.57.62-.51-.27-1.39-.88-.88-1.13.92-2.57,1.62-3.81,2.38-1.35.83-2.7,1.66-4.05,2.5-2.7,1.68-5.39,3.38-8.06,5.1-5.24,3.37-10.44,6.82-15.6,10.32-10.52,7.13-20.89,14.48-31.23,21.89-10.25,7.34-20.35,14.95-30.87,21.91s-20.99,12.86-31.65,19.04c-11.4,6.61-21.34,15.47-32.95,21.75-.71.38-.08,1.46.63,1.08h0Z"/><path class="cls-7" d="m211.12,403.71c18.35-15.28,37.86-29.07,57.52-42.59,9.79-6.73,19.62-13.4,29.39-20.16s19.62-13.71,29.65-20.26c5.7-3.73,11.45-7.38,17.24-10.97,2.85-1.76,5.7-3.51,8.57-5.24,1.51-.91,3.02-1.82,4.53-2.72.69-.41,1.38-.82,2.07-1.23.43-.26.9-.65,1.43-.65.8,0,.81-1.25,0-1.25-.91,0-1.49.48-2.27.94-1.38.82-2.76,1.64-4.13,2.46-2.67,1.6-5.33,3.22-7.99,4.85-5.14,3.16-10.24,6.36-15.31,9.63-10.22,6.57-20.29,13.37-30.2,20.4-19.67,13.95-39.88,27.11-59.42,41.24-10.9,7.89-21.63,16.04-31.97,24.66-.62.52.27,1.4.88.88h0Z"/></g><path class="cls-9" d="m82.65,310.15c-.24-.76-.77-1.45-1.43-1.92-.28-.2-.62-.33-.97-.42-.24-.19-.52-.33-.84-.39-1.69-.32-3.58-.11-4.52,1.56-.09.16-.17.33-.23.5-.64.82-.89,1.98-.58,2.97.82,2.63,4.93,4.58,7.08,2.37.09-.09.16-.19.23-.29.72-.43,1.29-1.08,1.55-1.92.27-.89.11-1.73-.29-2.46Z"/><path class="cls-9" d="m101.99,319.68c-.88-1.12-2.13-1.68-3.44-1.78-.94-.31-1.97-.4-3-.19-1.93.4-3.08,2.09-3.39,3.91-.52,1.56-.18,3.24.87,4.46.7,1.12,1.74,2.01,3.11,2.44,2.07.66,4.63-.13,6.07-1.72,1.99-2.2,1.48-4.97-.22-7.13Z"/><path class="cls-9" d="m124.12,335.02c-.75-1.76-2.7-2.97-4.61-2.84-2.36.16-3.76,1.91-4.01,4.16-.2,1.84.92,3.48,2.44,4.35,1.68,1.17,4.04,1.41,5.57-.17,1.45-1.5,1.38-3.71.61-5.5Z"/><path class="cls-9" d="m144.2,344.03c-1.36-.82-3.02-.77-4.55-.19-1.18.22-2.12.86-2.79,1.74-.28.16-.53.39-.74.71-.43.41-.71.95-.74,1.6-.27.74-.36,1.43-.27,2.07.07,1.15.51,2.26,1.4,3.23,1.47,1.6,3.88,2.02,5.91,1.59,4.65-.99,5.81-8.29,1.78-10.73Z"/><path class="cls-9" d="m168.52,361.31c-.6-.7-1.39-1.12-2.2-1.21-1.23-.52-2.66-.45-3.67.63-1.11,1.19-1.26,2.95-.84,4.46.03.09.06.18.09.27.06.38.23.73.48,1.03.63,1.04,1.61,1.85,2.81,2.14,1.36.32,3.18.17,4.14-.98,1.69-2.02.72-4.58-.81-6.35Z"/><path class="cls-9" d="m193.36,379.93c-.58-.71-1.36-1.27-2.21-1.58-1-.36-1.98-.26-2.93.19-1.07.5-1.49,1.74-1.58,2.82-.12,1.45.72,3.07,1.68,4.12.4.65,1.09,1.11,1.87,1.17.7.24,1.46.34,2.14.32,1.33-.05,2.91-.86,3.12-2.33.26-1.86-.7-3.53-2.09-4.71Z"/><path class="cls-9" d="m214.5,394.77c-1.89-.87-3.92-.84-5.57.51-.47.38-.82.85-1.08,1.36-.21.17-.4.37-.56.6-1.47,2.09-.96,4.61.8,6.23.72,1.18,1.89,2.03,3.4,2.13,1.22.09,2.49-.42,3.46-1.21.1-.05.21-.09.31-.14,3.93-2.16,2.98-7.75-.76-9.47Z"/><path class="cls-9" d="m237.7,415.97c-.78-1.04-1.7-2.13-3.02-2.46-1.59-.39-2.81.36-3.49,1.53-.2.13-.37.29-.53.47-.86,1.03-1.01,2.12-.79,3.41.29,1.67,1.83,3.19,3.48,3.51,1.83.36,3.55-.25,4.67-1.75,1.05-1.41.67-3.4-.32-4.71Z"/><path class="cls-9" d="m262.55,395.97c-.77-1.43-2.45-2.08-4-2.05-1.59.03-2.84.92-3.29,2.22-.15.23-.27.48-.37.76-.34.99-.08,2.11.45,2.98.78,1.31,2.33,2.59,3.96,2.45,1.39-.12,2.71-.9,3.29-2.22.6-1.38.69-2.79-.04-4.15Z"/><path class="cls-9" d="m280.18,377.88c-.28-.26-.58-.46-.89-.62-.64-.56-1.42-.92-2.25-.89-1.97.06-3.35,1.84-3.58,3.67-.04.34-.03.65.03.94.02,1.38,1.02,2.27,2.26,2.63.87.61,1.98.86,3.04.72,1.54-.21,2.61-1.63,2.75-3.1.11-1.22-.47-2.52-1.36-3.35Z"/><path class="cls-9" d="m309.59,357.75c-.44-1.72-1.76-2.8-3.32-3.25-1.91-1.27-4.52-1.04-6.15.68-1.86,1.96-1.31,4.78.2,6.73,3.25,4.22,10.67,1.27,9.27-4.16Z"/><path class="cls-9" d="m330.34,339.01c-.85-1.16-2.12-1.98-3.63-1.54h0c-.2.01-.39.04-.59.09-2.37.56-3.48,3.47-2.28,5.52.62,1.05,1.81,1.84,3,2.1,1.54.34,2.84-.14,3.78-1.39.96-1.28.64-3.56-.27-4.79Z"/><path class="cls-9" d="m356.8,326.47c-.21-1.15-1.14-1.88-2.13-2.37-1.3-1.96-3.9-2.58-5.74-.9-1.6,1.46-1.62,3.89-.55,5.65,1.12,1.84,3.29,2.71,5.31,1.9,1.87-.75,3.52-2.04,3.11-4.29Z"/><path class="cls-9" d="m379.59,312.21c-.06-.24-.15-.46-.26-.67-.56-1.89-2.4-3.36-4.34-3.49-2.48-.16-4.66,1.57-5.26,3.94-.68,2.71.89,5.27,3.44,6.23,2.23.83,4.93-.08,6.03-2.22.6-1.16.72-2.53.38-3.79Z"/><path class="cls-14" d="m78.87,310.51c-2.42,0-2.43,3.74-.01,3.75,2.42,0,2.43-3.74.01-3.75Z"/><path class="cls-14" d="m97.33,321.57c-2.42,0-2.43,3.74-.01,3.75,2.42,0,2.43-3.74.01-3.75Z"/><path class="cls-14" d="m120.29,335.15c-2.42,0-2.43,3.74-.01,3.75,2.42,0,2.43-3.74.01-3.75Z"/><path class="cls-14" d="m141.24,348.22c-2.42,0-2.43,3.74-.01,3.75,2.42,0,2.43-3.74.01-3.75Z"/><path class="cls-14" d="m164.69,363.29c-2.42,0-2.43,3.74-.01,3.75s2.43-3.74.01-3.75Z"/><path class="cls-14" d="m190.14,380.38c-2.42,0-2.43,3.74-.01,3.75,2.42,0,2.43-3.74.01-3.75Z"/><path class="cls-14" d="m211.08,398.45c-2.42,0-2.43,3.74-.01,3.75s2.43-3.74.01-3.75Z"/><path class="cls-14" d="m234.02,416.52c-2.42,0-2.43,3.74-.01,3.75,2.42,0,2.43-3.74.01-3.75Z"/><path class="cls-14" d="m259.58,396.11c-2.42,0-2.43,3.74-.01,3.75s2.43-3.74.01-3.75Z"/><path class="cls-14" d="m277.64,378.17c-2.42,0-2.43,3.74-.01,3.75s2.43-3.74.01-3.75Z"/><path class="cls-14" d="m304.21,356.76c-2.42,0-2.43,3.74-.01,3.75,2.42,0,2.43-3.74.01-3.75Z"/><path class="cls-14" d="m327.27,339.83c-2.42,0-2.43,3.74-.01,3.75s2.43-3.74.01-3.75Z"/><path class="cls-14" d="m352.82,324.92c-2.42,0-2.43,3.74-.01,3.75,2.42,0,2.43-3.74.01-3.75Z"/><path class="cls-14" d="m374.87,310.49c-2.42,0-2.43,3.74-.01,3.75,2.42,0,2.43-3.74.01-3.75Z"/><path class="cls-5" d="m229.53,38.43c-22.46-.47-33.52,4.18-44.52,21.27-8,12.82-3.98,30.02-12.98,40.39-4.5,5.5-10.5,9.16-12.5,17.71-2,10.99,4.5,10.38,9.5,16.49,1,1.22,3,1.83,4,3.05-8.5,9.16-19,18.93-16.5,34.8,2.5,15.87,15.75,24.16,25.66,28.16,18.82,7.59,40.69,10.65,59.69,7.59,13.5-1.83,73.21-17.58,41.64-52.24-4.09-4.49-11-8.55-8-16.49,2-5.5,11-6.11,13-13.43,2-7.94-3-12.82-7-17.71-6-7.33-5.5-6.11-4.5-16.49,2.5-27.48-14.24-53.34-47.5-53.12"/><path class="cls-11" d="m382.32,188.55c5.97-3.83,15.02-9.19,12.78-11.38-.85-1.15-11.15,6.31-15.03,8.21,5.65-5.35,11.38-9.3,10.14-10.89-1.06-1.51-8.64,4.63-13.59,7.86,2.29-2.91,4.42-7.05-.63-9.37-1.28-.53-2.86-1.32-3.33.84-.45,2.61,3.19,1.12,3.26,3.51.12,1.77-2.4,4.84-3.97,3.97-2.59-1.51.92-5.58-1.38-6.75-1.28-.53-2.6,3.04-2.88,4.22-.73,2.27-2.42,7.41-4,9.53-1.92,3.15-33.5,17.15-63.89,31.27-8.19-13.52-26.81-68.69-48.81-77.02.01-.71-7.67-1.19-10.77-1.35-4.3-5.35-5.73-11.79-6.47-19.31-4.93,2-10.14,1.33-15.34.33,1.09,6.39-.12,13.2-3.5,17.57-.58.02-1.17.04-1.81.07-2.26-.35-7.37.39-7.77.42,0,.09,0,.2,0,.3-22.75,7.9-42.76,64.74-51.4,78.99-30.4-14.12-61.97-28.13-63.89-31.27-1.58-2.13-3.27-7.26-4-9.53-.27-1.17-1.6-4.75-2.88-4.22-2.3,1.17,1.21,5.24-1.38,6.75-1.57.87-4.09-2.2-3.97-3.97.07-2.39,3.71-.9,3.26-3.51-.47-2.16-2.05-1.38-3.33-.84-5.05,2.32-2.92,6.46-.63,9.37-4.95-3.24-12.53-9.37-13.59-7.86-1.24,1.59,4.49,5.54,10.14,10.89-3.88-1.9-14.19-9.36-15.03-8.21-2.24,2.19,6.82,7.54,12.78,11.38-2.99-.47-12.07-6.09-12.48-4.35-.87,1.33,15.61,14.6,23.73,14.38,7.51,1.32,67.51,44.65,76.08,41.47,9.82-3.57,30.15-45.43,41.45-66.8.13,20.53.33,43.91.47,50.3.35,16.03-4,24.82-10.5,39.32h81c-6.5-12-12-23.5-14-37-.39-2.92-1.91-30.36-1.83-52.32,11.61,22.37,30.71,63.24,39.67,66.5,8.57,3.18,68.57-40.15,76.08-41.47,8.12.22,24.6-13.04,23.73-14.38-.42-1.74-9.5,3.88-12.48,4.35Z"/><path class="cls-1" d="m218.12,132.7c5.44,1.78,11.83,1.3,17.66.07-1.07-3.33-1.65-6.96-2.04-10.88-4.93,2-10.14,1.33-15.34.33.6,3.53.5,7.18-.28,10.48Z"/><path class="cls-17" d="m183.15,274.18c2-4,4.62-9.5,7.5-15.13,4.5-.12,77.24,1.49,80.74,1.49,2.51,4.12,8.26,8.52,6.76,11.02-2,3-9,4.5-12,5.5-10,3.5-21,5.5-31.5,5.5-13.5-.5-31-2-43.5-7.5"/><path class="cls-9" d="m233.65,316.22c-7-5-12-7-16.33-9.33-8.67-5-17.33-9.67-25.67-14.67s-16.67-10.33-25.33-14.67c-2.67-1.33-18.67-8-18.67-10.67h-.33c13.67-3,30.33,2.33,43.33,5.33,7.67,2,15.33,3.67,23,4.33,8.33.67,17,2.67,25.33,2.33,25.33-.67,48.67-15,73.67-15.67-9.33,11.33-27,18-38.67,26.33-11.67,8.33-28.33,18.33-40.33,26.67"/><path class="cls-26" d="m330.9,273.71c-4.5-38.63-80.52,18.92-92.75,27.61-19.88,14.49-22.58,22.61-44.99,37.85-9.64,6.56-30.41,15.55-39.1,22.83-8.7,7.78-17.2,20.56-4.29,23.9,10.43,2.77,25.86-11.99,32.46-17.5,12.78-10.67,15.05-14.62,28.65-18.27,22.15-5.43,40.87-13.95,62.09-21.9,14.14-5.14,57.14-24.03,57.93-54.52"/><path class="cls-16" d="m219.32,349.79c-2.61-2.07-6.97-1.18-9.59-3.25-2.95-2.08-3.86-5.43-4.43-9.12-.58-3.35.45-17.33-6.04-11.49-1.71,1.62-1.49,5.96-2.21,7.95h-.33c-.99-.37-6.54-4.85-7.97-1.22-.99,3.3,4.42,2.38,2.86,6.33-1.65-1.26-3.98-2.01-5.63-2.52-4.04-1.24-7.43-.18-10.64,2.4-4.04,3.25-2.79,7.87-6.39,11.61-.69.72-5.53,4.27-7.81,5.47-11.01,4.71-21.1,9.06-20.88,20.8.52,18.69,18.3,14.48,29.8,8.11,7.44-4.14,12.89-8.34,18.39-14.86,5.15-5.87,12.31-11.69,20.68-13.14,3.35-.58,18.69-.52,10.19-7.07Z"/><path class="cls-4" d="m202.05,345.3c-.99-1.55-1.87-3.15-2.43-5.09-.89-3.06-1.75-6.22-1.99-9.42-.16,1.18-.3,2.31-.58,3.08h-.33c-.08-.04-.21-.11-.36-.19.93,4.04,2.64,8.74,5.69,11.61Z"/><path class="cls-4" d="m206.9,356.15c-12.25.91-20.47,10.09-29.13,17.67-6.82,5.97-14.85,9.81-24.13,8.89-5.15-.51-9.89-2.07-13.34-5.25.95,17.87,18.41,13.7,29.76,7.41,7.44-4.14,12.89-8.34,18.39-14.86,5.15-5.87,12.31-11.69,20.68-13.14,1.16-.2,3.78-.33,6.34-.68-2.88-.16-5.76-.24-8.57-.04Z"/><path class="cls-25" d="m149.15,371.8c-1.61,0-1.61,2.5,0,2.5s1.61-2.5,0-2.5Z"/><path class="cls-25" d="m160.4,376.8c-1.61,0-1.61,2.5,0,2.5s1.61-2.5,0-2.5Z"/><path class="cls-25" d="m162.65,363.3c-1.61,0-1.61,2.5,0,2.5s1.61-2.5,0-2.5Z"/><path class="cls-25" d="m178.15,364.8c-1.61,0-1.61,2.5,0,2.5s1.61-2.5,0-2.5Z"/><path class="cls-25" d="m174.9,351.55c-1.61,0-1.61,2.5,0,2.5s1.61-2.5,0-2.5Z"/><path class="cls-25" d="m196.15,353.05c-1.61,0-1.61,2.5,0,2.5s1.61-2.5,0-2.5Z"/><path class="cls-25" d="m186.4,343.8c-1.61,0-1.61,2.5,0,2.5s1.61-2.5,0-2.5Z"/><path class="cls-25" d="m209.15,350.05c-1.61,0-1.61,2.5,0,2.5s1.61-2.5,0-2.5Z"/><path class="cls-25" d="m183.9,352.93c-2.42,0-2.42,3.75,0,3.75s2.42-3.75,0-3.75Z"/><path class="cls-25" d="m167.9,369.93c-2.42,0-2.42,3.75,0,3.75s2.42-3.75,0-3.75Z"/><path class="cls-25" d="m154.4,365.18c-2.42,0-2.42,3.75,0,3.75s2.42-3.75,0-3.75Z"/><path class="cls-25" d="m197.9,343.68c-2.42,0-2.42,3.75,0,3.75s2.42-3.75,0-3.75Z"/><path class="cls-25" d="m180.4,340.93c-2.42,0-2.42,3.75,0,3.75s2.42-3.75,0-3.75Z"/><path class="cls-25" d="m201.15,331.43c-2.42,0-2.42,3.75,0,3.75s2.42-3.75,0-3.75Z"/><path class="cls-11" d="m127.32,279.31c2.54-38.81,81.37,14.82,94.02,22.87,20.59,13.47,23.7,21.44,46.86,35.52,9.96,6.06,31.16,13.99,40.21,20.82,9.09,7.33,18.22,19.66,5.49,23.65-10.28,3.3-26.44-10.66-33.31-15.83-13.31-10.01-15.77-13.84-29.54-16.79-22.39-4.3-41.53-11.86-63.12-18.73-14.38-4.41-58.29-21.1-60.62-51.51"/><path class="cls-16" d="m253.29,354.73c8.44,1.03,15.88,6.47,21.32,12.07,5.83,6.24,11.48,10.15,19.12,13.91,11.81,5.78,29.78,9.08,29.35-9.61-.38-11.73-10.67-15.57-21.91-19.72-2.34-1.08-7.35-4.38-8.08-5.06-3.78-3.55-2.77-8.23-6.97-11.27-3.33-2.41-6.78-3.3-10.75-1.86-1.62.59-3.91,1.45-5.49,2.8-1.76-3.87,3.69-3.22,2.53-6.47-1.61-3.55-6.93,1.2-7.9,1.61l-.33.03c-.82-1.94-.82-6.29-2.61-7.82-6.77-5.5-5.04,8.41-5.45,11.79-.38,3.71-1.13,7.11-3.96,9.33-2.51,2.2-6.9,1.53-9.41,3.73-8.16,6.98,7.16,6.14,10.53,6.55Z"/><path class="cls-4" d="m261.8,342.16c.57-.8,1.07-1.58,1.47-2.27,1.72-2.97,2.33-5.98,1.99-9.21-.33.22-.59.39-.74.46l-.33.03c-.73-1.75-.81-5.43-2.12-7.27,2.75,5.22,1.32,12.08-.27,18.27Z"/><path class="cls-4" d="m255.48,353.9c12.28.28,20.95,9.04,29.98,16.17,7.11,5.61,15.33,9.04,24.55,7.65,5.12-.77,9.77-2.57,13.06-5.92-.04,17.89-17.69,14.62-29.35,8.91-7.64-3.76-13.29-7.67-19.12-13.91-5.44-5.6-12.88-11.05-21.32-12.07-1.17-.14-3.79-.13-6.36-.36,2.87-.31,5.74-.54,8.55-.47Z"/><path class="cls-25" d="m314.97,368.99c1.61,0,1.61,2.5,0,2.5s-1.61-2.5,0-2.5Z"/><path class="cls-25" d="m304.93,371.8c1.61,0,1.61,2.5,0,2.5s-1.61-2.5,0-2.5Z"/><path class="cls-25" d="m298.03,357.99c1.61,0,1.61,2.5,0,2.5s-1.61-2.5,0-2.5Z"/><path class="cls-25" d="m285.97,361.99c1.61,0,1.61,2.5,0,2.5s-1.61-2.5,0-2.5Z"/><path class="cls-25" d="m289.22,348.74c1.61,0,1.61,2.5,0,2.5s-1.61-2.5,0-2.5Z"/><path class="cls-25" d="m267.97,350.24c1.61,0,1.61,2.5,0,2.5s-1.61-2.5,0-2.5Z"/><path class="cls-25" d="m277.72,340.99c1.61,0,1.61,2.5,0,2.5s-1.61-2.5,0-2.5Z"/><path class="cls-25" d="m254.97,347.24c1.61,0,1.61,2.5,0,2.5s-1.61-2.5,0-2.5Z"/><path class="cls-25" d="m280.22,350.11c2.42,0,2.42,3.75,0,3.75s-2.42-3.75,0-3.75Z"/><path class="cls-25" d="m296.22,367.11c2.42,0,2.42,3.75,0,3.75s-2.42-3.75,0-3.75Z"/><path class="cls-25" d="m309.72,358.61c2.42,0,2.42,3.75,0,3.75s-2.42-3.75,0-3.75Z"/><path class="cls-25" d="m266.22,340.86c2.42,0,2.42,3.75,0,3.75s-2.42-3.75,0-3.75Z"/><path class="cls-25" d="m283.72,338.11c2.42,0,2.42,3.75,0,3.75s-2.42-3.75,0-3.75Z"/><path class="cls-25" d="m259.34,331.15c2.42,0,2.42,3.75,0,3.75s-2.42-3.75,0-3.75Z"/><path class="cls-6" d="m262.89,191.69c-2-18.25-3.09-28.48-3.11-46.88-.77-2.34-10.29-4.19-18.09-4.5-2.96,6.5-2.81,8.98-7.85,13.5-9.49,8.52-16.26-6.53-20.75-13.94-.47-.78-9.69-1.18-16.31,1.32-.5,9.4-.89,26.73-.89,36.13,0,19.91-2,38.71-3,58.06,12,3.32,64.5,2.77,78.5,1.11-3.5-14.93-6.5-28.75-8.5-44.79Z"/><path class="cls-16" d="m256.02,226.66c-1.33,4.49-6.62,4.53-9.14,1.19-2.64-3.49-7.26-9.03-12.36-7.64-4.89,1.34-8.46,5.02-11.79,8.65-2.31,2.52-6.11,1.53-7.85-1.01-5.03-7.33-13.5-10.31-21.09-7.02-.33,4.83-.65,9.66-.9,14.53,12,3.32,64.5,2.77,78.5,1.11-1.42-6.04-2.74-11.89-3.96-17.79-5.02.17-9.87,2.77-11.41,7.97Z"/><path class="cls-9" d="m207.64,140.39c2.13,10.81,8.38,21.77,20.72,22.27,11.83.48,19.11-10.91,20.33-21.72-2.31-.33-4.73-.55-7-.64-2.96,6.5-2.81,8.98-7.85,13.5-9.49,8.52-16.26-6.53-20.75-13.94-.23-.39-2.63-.68-5.79-.57.14.33.26.7.34,1.1Z"/><path class="cls-11" d="m228.49,48.89c-5.21-.49-10.5.83-14.5,2.17-5,1.67-10.67,4.33-14.83,7.67-8,6.33-11.19,17-11,27.17.2,10.56,6.67,28.83,25.5,38.17,3.61,1.79,8.33,2.67,12.33,2.83,19.5.33,31.97-21.69,34.17-38,2-14.83-1.33-38.17-31.67-40"/><path class="cls-11" d="m189.82,90.39c-4-4-10.83-2.83-9.67,4.17.67,3.83,3.17,6.33,7.17,6.17,2.83-.17,4.83-1.83,4.5-4.83"/><path class="cls-11" d="m258.56,90.39c4-4,10.83-2.83,9.67,4.17-.67,3.83-3.17,6.33-7.17,6.17-2.83-.17-4.83-1.83-4.5-4.83"/><path class="cls-19" d="m184.32,96.51c.65-.08,1.3-.2,1.94-.34.56-.12,1.25-.26,1.73-.32.26-.03.46-.13.57-.38s.04-.49-.13-.68c-.89-1.06-2.02-1.86-3-2.83-.23-.23-.66-.25-.88,0s-.25.64,0,.88c.98.97,2.11,1.78,3,2.83l.44-1.07c-.65.08-1.3.2-1.94.34-.56.12-1.25.26-1.73.32-.32.04-.64.26-.62.62.01.3.28.67.62.62h0Z"/><path class="cls-19" d="m262.28,92.24c-.05.06-.05.07-.02.03-.03.03-.06.07-.08.1-.06.07-.11.13-.17.19-.12.12-.24.24-.38.35-.24.21-.42.34-.72.54-.59.41-1.18.81-1.69,1.31-.34.33-.17.92.28,1.04,1.37.38,2.79.49,4.17.83.32.08.69-.1.77-.44s-.1-.69-.44-.77c-1.38-.34-2.8-.45-4.17-.83l.28,1.04c.5-.5,1-.8,1.6-1.23.63-.45,1.21-.93,1.67-1.56.2-.27.05-.7-.22-.86-.32-.18-.66-.05-.86.22h0Z"/><path class="cls-5" d="m189.82,90.39c2.04-3.58,6.33-8.83,8.33-12.83,1.25-2,3.25-10.5,5-11.5,2-1.5,7.5,2,10,2.25,5,.75,12.25-1,15.75-4.75,2.5,8.25,14,12,21.25,7.5-.75,8.75,7,11.5,9.75,18.5,7.75-6.5,5.5-22.75.5-30.25-7.25-10.5-19.5-13.25-31-15.25-11-2-22.5,1.5-32,7.5-9.75,6.25-12,17.5-12,28.25,0,2.75.5,6.5,1.5,8.75"/><path class="cls-16" d="m260.38,98.22c-.86,2.72-2.33,5.21-3,8-.07.3.09.71.44.77,2.27.36,4.55-.13,6.83-.14.58,0,.77-.66.44-1.07-.83-1.02-1.41-2.22-2.33-3.17-.56-.58-1.45.31-.88.88.92.94,1.5,2.15,2.33,3.17l.44-1.07c-2.15.01-4.36.53-6.5.19l.44.77c.67-2.79,2.14-5.28,3-8,.24-.77-.96-1.1-1.21-.33h0Z"/><path class="cls-16" d="m187.25,98.55c.86,2.72,2.33,5.21,3,8l.44-.77c-2.14.34-4.35-.18-6.5-.19l.44,1.07c.83-1.01,1.42-2.23,2.33-3.17.56-.58-.32-1.46-.88-.88-.92.95-1.5,2.15-2.33,3.17-.33.4-.14,1.06.44,1.07,2.28.01,4.56.5,6.83.14.34-.05.51-.47.44-.77-.67-2.79-2.14-5.28-3-8-.24-.76-1.45-.44-1.21.33h0Z"/><path class="cls-22" d="m230.28,245.05v2.5c0,.81,1.25.81,1.25,0v-2.5c0-.81-1.25-.81-1.25,0Z"/><path class="cls-6" d="m210.45,143.53c.69-.12,1.37-.33,2.08-.35.8-.02.81-1.27,0-1.25-.82.02-1.61.25-2.42.4-.79.14-.46,1.35.33,1.21h0Z"/><path class="cls-6" d="m212.47,148.47c.66-.39,1.34-.74,2-1.12.69-.41.06-1.49-.63-1.08-.66.39-1.34.74-2,1.12-.69.41-.06,1.49.63,1.08h0Z"/><path class="cls-6" d="m215.22,154.09c.93-.42,1.72-1.07,2.5-1.72.62-.52-.27-1.4-.88-.88-.7.58-1.41,1.15-2.25,1.53-.73.33-.1,1.41.63,1.08h0Z"/><path class="cls-6" d="m221.74,156.36c-.3.62-.56,1.26-.81,1.9-.3.75.91,1.07,1.21.33.22-.54.43-1.08.69-1.6.35-.72-.73-1.35-1.08-.63h0Z"/><path class="cls-6" d="m228.4,158.55c.01.63.11,1.25.12,1.88.01.81,1.26.81,1.25,0-.01-.63-.11-1.25-.12-1.88-.01-.81-1.26-.81-1.25,0h0Z"/><path class="cls-6" d="m233.96,156.47c.76.52,1.37,1.22,2.12,1.75.66.46,1.29-.62.63-1.08-.76-.52-1.37-1.22-2.12-1.75-.66-.46-1.29.62-.63,1.08h0Z"/><path class="cls-6" d="m238.4,152.43c.85.02,1.65.25,2.46.48.78.22,1.11-.98.33-1.21-.92-.26-1.83-.5-2.79-.52-.81-.02-.8,1.23,0,1.25h0Z"/><path class="cls-6" d="m241.15,147.8c.96.11,1.92.14,2.87.25.8.09.79-1.16,0-1.25-.96-.11-1.92-.14-2.87-.25-.8-.09-.79,1.16,0,1.25h0Z"/><path class="cls-6" d="m243.15,143.68h2.12c.81,0,.81-1.25,0-1.25h-2.12c-.81,0-.81,1.25,0,1.25h0Z"/><path class="cls-27" d="m194.28,263.3v5.5c0,.8,1.25.81,1.25,0v-5.5c0-.8-1.25-.81-1.25,0h0Z"/><path class="cls-27" d="m204.28,263.05v8c0,.8,1.25.81,1.25,0v-8c0-.8-1.25-.81-1.25,0h0Z"/><path class="cls-27" d="m211.53,265.05v4.25c0,.34.29.62.62.62s.62-.29.62-.62v-4.25c0-.34-.29-.62-.62-.62s-.62.29-.62.62h0Z"/><path class="cls-27" d="m219.28,263.3v9c0,.8,1.25.81,1.25,0v-9c0-.8-1.25-.81-1.25,0h0Z"/><path class="cls-27" d="m226.28,266.3v4c0,.33.29.64.62.62s.62-.27.62-.62v-4c0-.33-.29-.64-.62-.62s-.62.27-.62.62h0Z"/><path class="cls-27" d="m234.28,264.8v9.5c0,.8,1.25.81,1.25,0v-9.5c0-.8-1.25-.81-1.25,0h0Z"/><path class="cls-27" d="m241.78,266.8v4c0,.33.29.64.62.62s.62-.27.62-.62v-4c0-.33-.29-.64-.62-.62s-.62.27-.62.62h0Z"/><path class="cls-27" d="m249.03,264.3v10c0,.8,1.25.81,1.25,0v-10c0-.8-1.25-.81-1.25,0h0Z"/><path class="cls-27" d="m256.78,265.8v5c0,.8,1.25.81,1.25,0v-5c0-.8-1.25-.81-1.25,0h0Z"/><path class="cls-27" d="m263.78,263.3v6.75c0,.8,1.25.81,1.25,0v-6.75c0-.8-1.25-.81-1.25,0h0Z"/><path class="cls-27" d="m269.78,265.8v2c0,.33.29.64.62.62s.62-.27.62-.62v-2c0-.33-.29-.64-.62-.62s-.62.27-.62.62h0Z"/><path class="cls-19" d="m224.4,83.67c.01,3.46.3,6.91.15,10.37-.13,3.09-.56,6.52-2.28,9.17-.71,1.1-2.48,2.46-1.87,3.91.74,1.73,3.34,1.99,4.96,2.01.8.01.8-1.24,0-1.25-.97-.01-2-.11-2.89-.52-.31-.14-1-.47-1-.88,0-.2.38-.59.5-.75,1.14-1.58,2.14-3,2.76-4.88,1.8-5.51.96-11.5.93-17.18,0-.8-1.25-.81-1.25,0h0Z"/><path class="cls-19" d="m223.03,116.6c3.09,1.06,6.91-.13,8.94-2.66.21-.27.25-.62,0-.88-.22-.22-.67-.26-.88,0-1.78,2.22-5.02,3.27-7.73,2.34-.76-.26-1.09.95-.33,1.21h0Z"/><path class="cls-2" d="m220.11,83.71c-.21,2.63-6.87,1.14-9.25.69-2-.34-3.75-.69-5.87-.46-2.37.23-3.87,1.49-6,2.4-.87-2.52,2.37-4.69,4.62-5.15,2.87-.57,16.5,1.26,16.5,2.52"/><path class="cls-2" d="m228.59,83.71c.21,2.63,6.87,1.14,9.25.69,2-.34,3.75-.69,5.87-.46,2.37.23,3.87,1.49,6,2.4.87-2.52-2.37-4.69-4.62-5.15-2.87-.57-16.5,1.26-16.5,2.52"/><path class="cls-2" d="m232.36,96c.25-3.5,4.79-6.12,8.17-6.25,4.87-.12,6.96,4.88,12.33,2.5-2.75,3.88-6.62,1.38-10,.25-2.75-.88-6.38-1.5-10.5,3.5"/><path class="cls-2" d="m218.65,96c-.25-3.5-4.79-6.12-8.17-6.25-4.88-.12-6.96,4.88-12.33,2.5,2.75,3.88,6.62,1.38,10,.25,2.75-.88,6.37-1.5,10.5,3.5"/><ellipse class="cls-15" cx="208.2" cy="104.41" rx="7.5" ry="3.69"/><ellipse class="cls-15" cx="241.82" cy="104.41" rx="7.5" ry="3.69"/><path class="cls-19" d="m203.36,109.29c.8,0,.81-1.25,0-1.25s-.81,1.25,0,1.25h0Z"/><path class="cls-19" d="m207.53,105.96c.8,0,.81-1.25,0-1.25s-.81,1.25,0,1.25h0Z"/><path class="cls-19" d="m208.2,111.46c.8,0,.81-1.25,0-1.25s-.81,1.25,0,1.25h0Z"/><path class="cls-19" d="m239.36,109.29c.8,0,.81-1.25,0-1.25s-.81,1.25,0,1.25h0Z"/><path class="cls-19" d="m243.36,105.96c.8,0,.81-1.25,0-1.25s-.81,1.25,0,1.25h0Z"/><path class="cls-19" d="m245.36,110.96c.8,0,.81-1.25,0-1.25s-.81,1.25,0,1.25h0Z"/><path class="cls-20" d="m151.68,193.11c-.63-.55-1.24-1.19-1.86-1.84.38-.55.77-1.1,1.12-1.67.43-.67-.41-1.46-1.07-1.07-.6.35-1.21.68-1.82,1-.63-.55-1.28-1.04-2-1.39-.53-.26-1.17.05-1.18.67,0,.75.04,1.49.12,2.23-.65.32-1.29.65-1.92,1-.54.3-.5,1.33.19,1.43.72.11,1.45.19,2.18.26.12.57.25,1.14.39,1.71,0,.06,0,.12-.02.17-.02.24.06.42.19.55.05.22.19.37.37.45,0,0,.02,0,.03.01.35.15.82.05,1.02-.31.4-.72.7-1.5.97-2.28.85.1,1.69.21,2.53.37.71.14,1.4-.75.76-1.31Z"/><path class="cls-5" d="m140.48,151.59c-.53-.46-1.04-1-1.56-1.55.32-.46.64-.93.94-1.4.36-.56-.34-1.23-.9-.9-.5.3-1.01.57-1.53.84-.53-.46-1.08-.87-1.68-1.17-.44-.22-.98.04-.99.57,0,.63.03,1.25.1,1.87-.54.27-1.08.55-1.61.85-.46.25-.42,1.12.16,1.2.61.09,1.22.16,1.83.22.1.48.21.96.33,1.43,0,.05,0,.1-.01.14-.02.2.05.35.16.46.04.18.16.31.31.38,0,0,.02,0,.02.01.29.12.69.04.86-.26.34-.61.59-1.26.81-1.92.71.08,1.42.18,2.12.31.59.11,1.18-.63.64-1.1Z"/><path class="cls-20" d="m304.06,194.25c.48-.68.92-1.46,1.37-2.23-.5-.44-1.01-.88-1.49-1.35-.57-.55.04-1.52.78-1.29.66.2,1.33.37,2.01.53.47-.69,1-1.32,1.61-1.83.45-.38,1.15-.23,1.3.37.19.72.32,1.45.42,2.19.7.16,1.41.32,2.11.51.6.16.81,1.17.16,1.43-.68.28-1.37.53-2.05.78.02.58.03,1.17.03,1.75.02.05.04.11.06.16.08.23.05.42-.05.58,0,.22-.09.41-.25.53,0,0-.02.01-.03.02-.3.23-.79.24-1.07-.05-.57-.6-1.04-1.28-1.49-1.98-.8.3-1.59.61-2.36.97-.65.3-1.54-.39-1.05-1.08Z"/><path class="cls-20" d="m337.7,129.91c.48-.68.92-1.46,1.37-2.23-.5-.44-1.01-.88-1.49-1.35-.57-.55.04-1.52.78-1.3.66.2,1.33.37,2.01.53.47-.69,1-1.32,1.61-1.83.45-.38,1.15-.23,1.3.37.19.72.32,1.45.42,2.19.7.16,1.41.32,2.11.51.6.16.81,1.17.16,1.43-.68.28-1.37.53-2.05.78.02.58.03,1.17.03,1.75.02.05.04.11.06.16.08.23.05.42-.05.58,0,.22-.09.41-.25.53,0,0-.02.01-.03.02-.3.23-.79.24-1.07-.05-.57-.6-1.04-1.28-1.49-1.98-.8.3-1.59.61-2.36.97-.65.3-1.54-.39-1.05-1.08Z"/><path class="cls-20" d="m111.54,133.27c.48-.68.92-1.46,1.37-2.23-.5-.44-1.01-.88-1.49-1.35-.57-.55.04-1.52.78-1.3.66.2,1.33.37,2.01.53.47-.69,1-1.32,1.61-1.83.45-.38,1.15-.23,1.3.37.19.72.32,1.45.42,2.19.7.16,1.41.32,2.11.51.6.16.81,1.17.16,1.43-.68.28-1.37.53-2.05.78.02.58.03,1.17.03,1.75.02.05.04.11.06.16.08.23.05.42-.05.58,0,.22-.09.41-.25.53,0,0-.02.01-.03.02-.3.23-.79.24-1.07-.05-.57-.6-1.04-1.28-1.49-1.98-.8.3-1.59.61-2.36.97-.65.3-1.54-.39-1.05-1.08Z"/><path class="cls-5" d="m339.15,169.25c.31-.44.6-.95.89-1.45-.33-.29-.66-.58-.97-.88-.37-.36.03-.99.51-.84.43.13.87.24,1.31.34.31-.45.65-.86,1.04-1.19.29-.25.74-.15.85.24.12.47.21.95.27,1.43.46.1.92.21,1.37.33.39.11.53.76.1.93-.44.18-.89.35-1.34.51.01.38.02.76.02,1.14.01.03.02.07.04.1.05.15.03.27-.04.38,0,.15-.06.26-.16.34,0,0-.01,0-.02.01-.2.15-.51.16-.69-.04-.37-.39-.68-.83-.97-1.29-.52.19-1.03.4-1.54.63-.42.2-1-.25-.69-.71Z"/><path class="cls-5" d="m110.06,173.37c.31-.44.6-.95.89-1.45-.33-.29-.66-.58-.97-.88-.37-.36.03-.99.51-.84.43.13.87.24,1.31.34.31-.45.65-.86,1.04-1.19.29-.25.74-.15.85.24.12.47.21.95.27,1.43.46.1.92.21,1.37.33.39.11.53.76.1.93-.44.18-.89.35-1.33.51.01.38.02.76.02,1.14.01.03.02.07.04.11.05.15.03.27-.04.38,0,.15-.06.26-.16.34,0,0-.01,0-.02.01-.2.15-.51.16-.69-.04-.37-.39-.68-.83-.97-1.29-.52.19-1.03.4-1.54.63-.42.2-1-.25-.69-.71Z"/><path class="cls-5" d="m305.08,154.68c.39-.55.74-1.17,1.1-1.8-.41-.36-.81-.71-1.2-1.08-.46-.44.04-1.22.63-1.04.54.16,1.07.3,1.62.43.38-.55.8-1.06,1.29-1.47.36-.3.92-.19,1.05.3.15.58.26,1.17.34,1.76.57.13,1.13.26,1.7.41.48.13.65.94.13,1.15-.54.22-1.1.43-1.65.63.02.47.02.94.03,1.41.02.04.03.09.05.13.06.18.04.34-.04.47,0,.18-.08.33-.2.43,0,0-.02.01-.02.02-.24.18-.63.2-.86-.04-.46-.49-.84-1.03-1.2-1.59-.64.24-1.28.49-1.9.78-.53.24-1.24-.31-.85-.87Z"/><path class="cls-29" d="m58.89,339.67s2.67,4.71,10.84,4.33c8.16-.38,10.84-4.39,10.84-4.39,0,0-11.42-4.52-21.67.06Z"/><path class="cls-5" d="m58.89,339.67s10.84,7.25,21.67-.06v18.58s-13.17,5.16-21.67-1.33v-17.19Z"/><path class="cls-13" d="m69.58,336.56c-1.98,0-3.41-1.21-3.52-3.3-.11-2.97,2.97-4.94,3.3-7.8,1.43,1.98,3.63,3.96,3.85,6.48.11,1.87-1.21,4.61-3.41,4.61"/><path class="cls-18" d="m70.26,340.13v-7.12c0-.81-1.25-.81-1.25,0v7.12c0,.81,1.25.81,1.25,0h0Z"/><path class="cls-16" d="m60.32,355.54c5.18,3.78,12.69,3.31,18.36.94.73-.31.41-1.52-.33-1.2-5.4,2.26-12.46,2.79-17.39-.81-.65-.48-1.27.61-.63,1.08h0Z"/><path class="cls-16" d="m61.39,353c.81,0,.81-1.25,0-1.25s-.81,1.25,0,1.25h0Z"/><path class="cls-16" d="m66.14,354.38c.81,0,.81-1.25,0-1.25s-.81,1.25,0,1.25h0Z"/><path class="cls-16" d="m71.01,354v.12c0,.81,1.25.81,1.25,0v-.12c0-.81-1.25-.81-1.25,0h0Z"/><path class="cls-16" d="m77.51,353.63c.81,0,.81-1.25,0-1.25s-.81,1.25,0,1.25h0Z"/><path class="cls-16" d="m48.05,286.76s2.67,4.71,10.84,4.33c8.16-.38,10.84-4.39,10.84-4.39,0,0-11.42-4.52-21.67.06Z"/><path class="cls-29" d="m48.05,286.76s10.84,7.25,21.67-.06v18.58s-13.17,5.16-21.67-1.33v-17.19Z"/><path class="cls-13" d="m58.74,283.66c-1.98,0-3.41-1.21-3.52-3.3-.11-2.97,2.97-4.94,3.3-7.8,1.43,1.98,3.63,3.96,3.85,6.48.11,1.87-1.21,4.61-3.41,4.61"/><path class="cls-18" d="m59.42,287.22v-7.12c0-.81-1.25-.81-1.25,0v7.12c0,.81,1.25.81,1.25,0h0Z"/><path class="cls-18" d="m49.48,302.63c5.18,3.78,12.69,3.31,18.36.94.73-.31.41-1.52-.33-1.2-5.4,2.26-12.46,2.79-17.39-.81-.65-.48-1.27.61-.63,1.08h0Z"/><path class="cls-18" d="m50.55,300.09c.81,0,.81-1.25,0-1.25s-.81,1.25,0,1.25h0Z"/><path class="cls-18" d="m55.3,301.47c.81,0,.81-1.25,0-1.25s-.81,1.25,0,1.25h0Z"/><path class="cls-18" d="m60.17,301.09v.12c0,.81,1.25.81,1.25,0v-.12c0-.81-1.25-.81-1.25,0h0Z"/><path class="cls-18" d="m66.67,300.72c.81,0,.81-1.25,0-1.25s-.81,1.25,0,1.25h0Z"/><path class="cls-29" d="m398.09,336.86s-2.67,4.71-10.84,4.33c-8.16-.38-10.84-4.39-10.84-4.39,0,0,11.42-4.52,21.67.06Z"/><path class="cls-5" d="m398.09,336.86s-10.84,7.25-21.67-.06v18.58s13.17,5.16,21.67-1.33v-17.19Z"/><path class="cls-13" d="m387.4,333.75c1.98,0,3.41-1.21,3.52-3.3.11-2.97-2.97-4.94-3.3-7.8-1.43,1.98-3.62,3.96-3.85,6.48-.11,1.87,1.21,4.61,3.41,4.61"/><path class="cls-18" d="m386.71,337.31v-7.12c0-.81,1.25-.81,1.25,0v7.12c0,.81-1.25.81-1.25,0h0Z"/><path class="cls-16" d="m396.65,352.73c-5.18,3.78-12.68,3.31-18.36.94-.73-.31-.41-1.52.33-1.2,5.4,2.26,12.46,2.79,17.39-.81.65-.48,1.28.61.63,1.08h0Z"/><path class="cls-16" d="m395.59,350.19c-.81,0-.81-1.25,0-1.25s.81,1.25,0,1.25h0Z"/><path class="cls-16" d="m390.84,351.56c-.81,0-.81-1.25,0-1.25s.81,1.25,0,1.25h0Z"/><path class="cls-16" d="m385.96,351.19v.12c0,.81-1.25.81-1.25,0v-.12c0-.81,1.25-.81,1.25,0h0Z"/><path class="cls-16" d="m379.46,350.81c-.81,0-.81-1.25,0-1.25s.81,1.25,0,1.25h0Z"/><path class="cls-16" d="m408.93,293s-2.67,4.71-10.84,4.33-10.84-4.39-10.84-4.39c0,0,11.42-4.52,21.67.06Z"/><path class="cls-29" d="m408.93,293s-10.84,7.25-21.67-.06v18.58s13.17,5.16,21.67-1.33v-17.19Z"/><path class="cls-13" d="m398.23,289.89c1.98,0,3.41-1.21,3.52-3.3.11-2.97-2.97-4.94-3.3-7.8-1.43,1.98-3.63,3.95-3.85,6.48-.11,1.87,1.21,4.61,3.41,4.61"/><path class="cls-18" d="m397.55,293.46v-7.12c0-.81,1.25-.81,1.25,0v7.12c0,.81-1.25.81-1.25,0h0Z"/><path class="cls-18" d="m407.49,308.87c-5.18,3.78-12.69,3.31-18.36.94-.73-.31-.41-1.52.33-1.21,5.4,2.26,12.46,2.79,17.39-.81.65-.48,1.28.61.63,1.08h0Z"/><path class="cls-18" d="m406.43,306.33c-.81,0-.81-1.25,0-1.25s.81,1.25,0,1.25h0Z"/><path class="cls-18" d="m401.68,307.71c-.81,0-.81-1.25,0-1.25s.81,1.25,0,1.25h0Z"/><path class="cls-18" d="m396.8,307.33v.12c0,.81-1.25.81-1.25,0v-.12c0-.81,1.25-.81,1.25,0h0Z"/><path class="cls-18" d="m390.3,306.96c-.81,0-.81-1.25,0-1.25s.81,1.25,0,1.25h0Z"/><path class="cls-6" d="m81.61,157v10.75c0,1.61,2.5,1.61,2.5,0v-10.75c0-1.61-2.5-1.61-2.5,0Z"/><path class="cls-6" d="m78.75,166.12c-.92-.92-1.83-1.83-2.75-2.75-1.14-1.14-2.91.63-1.77,1.77.92.92,1.83,1.83,2.75,2.75,1.14,1.14,2.91-.63,1.77-1.77Z"/><path class="cls-6" d="m91.98,163.37l-3.75,3.75c-1.14,1.14.63,2.91,1.77,1.77l3.75-3.75c1.14-1.14-.63-2.91-1.77-1.77Z"/><path class="cls-6" d="m372.87,159.51v10.75c0,1.61-2.5,1.61-2.5,0v-10.75c0-1.61,2.5-1.61,2.5,0Z"/><path class="cls-6" d="m375.74,168.63c.92-.92,1.83-1.83,2.75-2.75,1.14-1.14,2.91.63,1.77,1.77-.92.92-1.83,1.83-2.75,2.75-1.14,1.14-2.91-.63-1.77-1.77Z"/><path class="cls-6" d="m362.5,165.88l3.75,3.75c1.14,1.14-.63,2.91-1.77,1.77l-3.75-3.75c-1.14-1.14.63-2.91,1.77-1.77Z"/><path class="cls-3" d="m389.26,125.47c-13.51.63-24.58.52-34.57-3.54-5.01-1.73-12.55-7.16-8.97-13.29,3.26-5.84,10.92-3.09,16.01-3.16-2.97-7.02-5.96-20.04,5.17-21.32,10.83-1,13.54,5.54,17.36,13.08,4.5-6.68,11.16-21.34,22.24-14.85,6.99,4.21,2.3,15.08.82,21.3,7.8-6.83,22.89-2.84,21.74,9.09-1.5,13.11-26.34,12.72-39.81,12.69"/><path class="cls-3" d="m44.47,254.2c-13.51.63-24.58.52-34.57-3.54-5.01-1.73-12.55-7.17-8.97-13.29,3.26-5.84,10.92-3.09,16.01-3.16-2.97-7.02-5.96-20.04,5.17-21.32,10.83-1,13.54,5.54,17.36,13.08,4.5-6.68,11.16-21.34,22.24-14.84,6.99,4.21,2.3,15.08.82,21.3,7.8-6.83,22.89-2.84,21.74,9.09-1.5,13.11-26.34,12.72-39.81,12.69"/><path class="cls-3" d="m93.88,114.42c-8.89.41-16.17.34-22.75-2.33-3.3-1.14-8.26-4.71-5.9-8.74,2.15-3.84,7.19-2.03,10.54-2.08-1.95-4.62-3.93-13.19,3.4-14.03,7.12-.66,8.91,3.65,11.43,8.6,2.96-4.4,7.35-14.05,14.64-9.77,4.6,2.77,1.51,9.92.54,14.01,5.13-4.49,15.06-1.87,14.31,5.98-.99,8.62-17.33,8.37-26.2,8.35"/><path class="cls-3" d="m369.14,233.76c-6.34.3-11.54.24-16.24-1.66-2.35-.81-5.89-3.36-4.21-6.24,1.53-2.74,5.13-1.45,7.52-1.48-1.39-3.3-2.8-9.41,2.43-10.01,5.08-.47,6.36,2.6,8.15,6.14,2.11-3.14,5.24-10.02,10.45-6.97,3.28,1.98,1.08,7.08.38,10,3.66-3.21,10.75-1.33,10.21,4.27-.71,6.15-12.37,5.97-18.69,5.96"/><path class="cls-3" d="m263.61,30.77c-4.68.22-8.51.18-11.97-1.23-1.74-.6-4.34-2.48-3.11-4.6,1.13-2.02,3.78-1.07,5.55-1.09-1.03-2.43-2.07-6.94,1.79-7.38,3.75-.35,4.69,1.92,6.01,4.53,1.56-2.31,3.87-7.39,7.7-5.14,2.42,1.46.8,5.22.28,7.37,2.7-2.36,7.92-.98,7.53,3.15-.52,4.54-9.12,4.4-13.78,4.39"/></svg>